<svg xmlns="http://www.w3.org/2000/svg" xmlns:xlink="http://www.w3.org/1999/xlink" width="500" zoomAndPan="magnify" viewBox="0 0 375 374.999991" height="500" preserveAspectRatio="xMidYMid meet" version="1.0"><defs><clipPath id="4d36ea4ba6"><path d="M 153 68.109375 L 223 68.109375 L 223 160 L 153 160 Z M 153 68.109375 " clip-rule="nonzero"/></clipPath><clipPath id="dfd36a028f"><path d="M 75.570312 231 L 299.070312 231 L 299.070312 262 L 75.570312 262 Z M 75.570312 231 " clip-rule="nonzero"/></clipPath><clipPath id="dc4b2f496e"><path d="M 89 255 L 287 255 L 287 306.609375 L 89 306.609375 Z M 89 255 " clip-rule="nonzero"/></clipPath></defs><path fill="#ed5f00" d="M 124.257812 237.445312 C 122.4375 237.445312 121.179688 235.625 121.597656 233.949219 L 135.449219 178.542969 C 135.589844 178.265625 145.941406 151.261719 172.945312 158.816406 C 176.441406 159.796875 175.042969 165.253906 171.40625 164.273438 C 150 158.257812 141.605469 178.265625 140.765625 180.363281 L 127.054688 235.347656 C 126.777344 236.605469 125.515625 237.445312 124.257812 237.445312 Z M 124.257812 237.445312 " fill-opacity="1" fill-rule="evenodd"/><path fill="#ed5f00" d="M 250.734375 237.445312 C 249.472656 237.445312 248.355469 236.605469 248.074219 235.347656 L 234.226562 180.363281 C 233.523438 178.40625 225.128906 158.539062 204.144531 164.132812 C 200.507812 164.972656 199.109375 159.65625 202.746094 158.675781 C 229.328125 151.683594 239.402344 178.265625 239.542969 178.542969 L 253.53125 233.949219 C 253.8125 235.625 252.691406 237.445312 250.734375 237.445312 Z M 250.734375 237.445312 " fill-opacity="1" fill-rule="evenodd"/><g clip-path="url(#4d36ea4ba6)"><path fill="#ed5f00" d="M 187.914062 159.097656 C 187.914062 159.097656 187.777344 159.097656 187.777344 159.097656 C 172.246094 157.976562 160.355469 133.914062 159.792969 123.421875 C 157.695312 119.785156 149.441406 103.972656 154.757812 95.160156 C 155.738281 92.78125 166.789062 70.117188 187.777344 68.15625 C 187.914062 68.15625 188.054688 68.15625 188.195312 68.15625 C 209.042969 70.117188 220.09375 92.78125 221.214844 95.160156 C 226.390625 103.972656 218.136719 119.785156 216.035156 123.421875 C 215.476562 133.914062 203.585938 157.976562 188.195312 159.097656 C 188.054688 159.097656 188.054688 159.097656 187.914062 159.097656 Z M 187.914062 73.753906 C 169.726562 75.574219 159.792969 97.679688 159.515625 97.957031 C 155.316406 105.09375 165.390625 120.761719 165.390625 122.722656 C 165.390625 130.835938 176.164062 152.523438 187.914062 153.5 C 199.808594 152.523438 210.582031 130.835938 210.582031 122.722656 C 210.582031 120.34375 220.652344 106.210938 216.175781 97.539062 C 216.035156 97.398438 205.964844 75.574219 187.914062 73.753906 Z M 187.914062 73.753906 " fill-opacity="1" fill-rule="evenodd"/></g><path fill="#ed5f00" d="M 162.59375 125.519531 C 160.632812 125.519531 158.953125 123.5625 160.214844 121.183594 C 164.550781 112.507812 166.929688 105.234375 166.371094 102.015625 C 165.949219 99.355469 169.308594 97.679688 171.125 99.496094 C 171.40625 99.777344 177.140625 105.371094 187.914062 105.511719 C 191.554688 105.511719 191.554688 111.25 187.914062 111.109375 C 180.640625 110.96875 175.183594 108.730469 171.6875 106.773438 C 170.566406 112.648438 167.769531 118.382812 165.109375 123.980469 C 164.550781 124.960938 163.570312 125.519531 162.59375 125.519531 Z M 162.59375 125.519531 " fill-opacity="1" fill-rule="evenodd"/><path fill="#ed5f00" d="M 213.238281 125.519531 C 211.980469 125.519531 211.28125 124.820312 210.71875 123.699219 C 208.0625 118.523438 205.265625 112.089844 204.144531 106.773438 C 200.925781 108.589844 194.910156 111.109375 187.914062 111.109375 C 184.277344 111.109375 184.277344 105.652344 187.914062 105.511719 C 202.886719 105.234375 204.144531 97.117188 207.921875 99.078125 C 211.417969 100.894531 206.101562 102.996094 215.757812 121.460938 C 216.734375 123.28125 215.335938 125.519531 213.238281 125.519531 Z M 213.238281 125.519531 " fill-opacity="1" fill-rule="evenodd"/><path fill="#ed5f00" d="M 187.914062 186.097656 C 187.074219 186.097656 186.238281 185.679688 185.675781 184.980469 L 170.148438 164.273438 C 169.027344 162.734375 169.585938 148.746094 169.585938 145.945312 C 169.585938 142.308594 175.183594 142.308594 175.183594 145.945312 L 175.183594 161.617188 L 190.152344 181.621094 C 191.554688 183.441406 190.152344 186.097656 187.914062 186.097656 Z M 187.914062 186.097656 " fill-opacity="1" fill-rule="evenodd"/><path fill="#ed5f00" d="M 187.914062 186.097656 C 185.675781 186.097656 184.277344 183.441406 185.675781 181.621094 L 200.648438 161.753906 L 200.648438 145.945312 C 200.648438 142.308594 206.242188 142.308594 206.242188 145.945312 C 206.242188 148.746094 206.804688 162.734375 205.683594 164.273438 L 190.152344 184.980469 C 189.59375 185.679688 188.753906 186.097656 187.914062 186.097656 Z M 187.914062 186.097656 " fill-opacity="1" fill-rule="evenodd"/><path fill="#ed5f00" d="M 187.914062 220.375 C 185.398438 220.375 184.277344 217.296875 185.957031 215.621094 L 203.726562 197.851562 L 203.726562 182.042969 C 203.726562 181.0625 204.144531 180.082031 205.125 179.664062 L 213.519531 174.765625 L 213.519531 160.777344 C 213.519531 157.136719 219.113281 157.136719 219.113281 160.777344 L 219.113281 176.304688 C 219.113281 177.425781 218.554688 178.265625 217.714844 178.824219 L 209.320312 183.722656 L 209.320312 199.109375 C 209.320312 199.808594 208.902344 200.511719 208.480469 201.070312 L 189.875 219.539062 C 189.316406 220.097656 188.613281 220.375 187.914062 220.375 Z M 187.914062 220.375 " fill-opacity="1" fill-rule="evenodd"/><path fill="#ed5f00" d="M 187.914062 237.445312 C 186.375 237.445312 185.117188 236.1875 185.117188 234.648438 L 185.117188 183.300781 C 185.117188 179.664062 190.714844 179.664062 190.714844 183.300781 L 190.714844 234.648438 C 190.714844 236.1875 189.453125 237.445312 187.914062 237.445312 Z M 187.914062 237.445312 " fill-opacity="1" fill-rule="evenodd"/><path fill="#ed5f00" d="M 187.914062 220.375 C 187.214844 220.375 186.515625 220.097656 185.957031 219.539062 L 167.488281 201.070312 C 166.929688 200.511719 166.648438 199.808594 166.648438 199.109375 L 166.648438 183.722656 L 158.253906 178.824219 C 157.277344 178.265625 156.855469 177.425781 156.855469 176.445312 L 156.855469 160.777344 C 156.855469 157.136719 162.453125 157.136719 162.453125 160.777344 L 162.453125 174.765625 L 170.847656 179.664062 C 171.6875 180.082031 172.246094 181.0625 172.246094 182.042969 L 172.246094 197.851562 L 189.875 215.621094 C 191.691406 217.296875 190.433594 220.375 187.914062 220.375 Z M 187.914062 220.375 " fill-opacity="1" fill-rule="evenodd"/><g clip-path="url(#dfd36a028f)"><path fill="#ed5f00" d="M 291.585938 261.371094 L 83.542969 261.371094 C 79.207031 261.371094 75.570312 257.871094 75.570312 253.535156 L 75.570312 239.683594 C 75.570312 235.347656 79.207031 231.847656 83.542969 231.847656 L 291.585938 231.847656 C 295.921875 231.847656 299.421875 235.347656 299.421875 239.683594 L 299.421875 253.535156 C 299.421875 257.871094 295.921875 261.371094 291.585938 261.371094 Z M 83.542969 237.445312 C 82.285156 237.445312 81.167969 238.425781 81.167969 239.683594 L 81.167969 253.535156 C 81.167969 254.792969 82.285156 255.773438 83.542969 255.773438 L 291.585938 255.773438 C 292.847656 255.773438 293.824219 254.792969 293.824219 253.535156 L 293.824219 239.683594 C 293.824219 238.425781 292.847656 237.445312 291.585938 237.445312 Z M 83.542969 237.445312 " fill-opacity="1" fill-rule="evenodd"/></g><g clip-path="url(#dc4b2f496e)"><path fill="#ed5f00" d="M 283.332031 306.839844 L 92.5 306.839844 C 90.960938 306.839844 89.699219 305.582031 89.699219 304.042969 L 89.699219 258.570312 C 89.699219 254.933594 95.296875 254.933594 95.296875 258.570312 L 95.296875 301.242188 L 280.535156 301.242188 L 280.535156 258.570312 C 280.535156 254.933594 286.128906 254.933594 286.128906 258.570312 L 286.128906 304.042969 C 286.128906 305.582031 284.871094 306.839844 283.332031 306.839844 Z M 283.332031 306.839844 " fill-opacity="1" fill-rule="evenodd"/></g><path fill="#ed5f00" d="M 123.976562 237.445312 C 122.859375 237.445312 121.738281 236.746094 121.320312 235.625 C 115.445312 220.515625 90.261719 142.308594 145.941406 133.773438 L 166.648438 133.773438 C 170.285156 133.773438 170.285156 139.371094 166.648438 139.371094 L 146.503906 139.371094 C 135.449219 140.910156 127.195312 145.945312 122.300781 154.339844 C 106.488281 181.0625 126.355469 233.109375 126.636719 233.667969 C 127.335938 235.488281 125.9375 237.445312 123.976562 237.445312 Z M 251.152344 237.445312 C 249.195312 237.445312 247.796875 235.488281 248.496094 233.667969 C 248.773438 233.109375 268.503906 181.0625 252.832031 154.339844 C 247.796875 145.945312 239.679688 140.910156 228.628906 139.371094 L 209.179688 139.371094 C 205.542969 139.371094 205.542969 133.773438 209.179688 133.773438 L 229.1875 133.773438 C 284.730469 141.609375 259.546875 221.214844 253.671875 235.625 C 253.253906 236.746094 252.273438 237.445312 251.152344 237.445312 Z M 251.152344 237.445312 " fill-opacity="1" fill-rule="evenodd"/><path fill="#ed5f00" d="M 251.714844 282.074219 L 124.117188 282.074219 C 120.480469 282.074219 120.480469 276.480469 124.117188 276.480469 L 251.714844 276.480469 C 255.351562 276.480469 255.492188 282.074219 251.714844 282.074219 Z M 251.714844 282.074219 " fill-opacity="1" fill-rule="evenodd"/></svg>