<svg xmlns="http://www.w3.org/2000/svg" xmlns:xlink="http://www.w3.org/1999/xlink" width="500" zoomAndPan="magnify" viewBox="0 0 375 374.999991" height="500" preserveAspectRatio="xMidYMid meet" version="1.0"><defs><clipPath id="50cde33e13"><path d="M 75.066406 75.066406 L 300 75.066406 L 300 299 L 75.066406 299 Z M 75.066406 75.066406 " clip-rule="nonzero"/></clipPath></defs><g clip-path="url(#50cde33e13)"><path fill="#ed5f00" d="M 187.496094 73.820312 C 178.871094 73.820312 172.039062 80.847656 172.039062 89.394531 C 172.039062 92.929688 173.171875 96.148438 175.140625 98.785156 C 167.960938 103.039062 163.234375 110.90625 163.234375 119.902344 L 163.234375 123.398438 C 163.234375 131.261719 169.519531 137.527344 177.230469 137.527344 L 197.765625 137.527344 C 205.476562 137.527344 211.761719 131.222656 211.761719 123.398438 L 211.761719 119.902344 C 211.761719 110.90625 207.035156 103.039062 199.851562 98.785156 C 201.84375 96.148438 202.957031 92.929688 202.957031 89.394531 C 202.957031 80.847656 196.125 73.820312 187.496094 73.820312 Z M 187.496094 81.3125 C 191.851562 81.3125 195.460938 84.867188 195.460938 89.394531 C 195.460938 93.921875 191.851562 97.496094 187.496094 97.496094 C 183.144531 97.496094 179.515625 93.921875 179.515625 89.394531 C 179.515625 84.867188 183.144531 81.3125 187.496094 81.3125 Z M 181.796875 103.878906 C 183.613281 104.621094 185.527344 104.972656 187.496094 104.972656 C 189.46875 104.972656 191.226562 104.660156 193.21875 103.878906 C 199.542969 106.179688 204.265625 112.386719 204.265625 119.902344 L 204.265625 123.398438 C 204.265625 127.046875 201.414062 130.035156 197.765625 130.035156 L 177.230469 130.035156 C 173.582031 130.035156 170.730469 127.046875 170.730469 123.398438 L 170.730469 119.902344 C 170.730469 112.269531 175.609375 106.0625 181.796875 103.878906 Z M 142.332031 123.320312 C 141.726562 123.359375 141.160156 123.535156 140.671875 123.847656 C 111.550781 140.652344 93.804688 171.511719 93.804688 204.988281 C 93.882812 209.984375 101.164062 209.964844 101.300781 204.988281 C 101.300781 174.1875 117.71875 145.746094 144.398438 130.347656 C 147.699219 128.414062 146.449219 123.300781 142.332031 123.320312 Z M 232.390625 123.320312 C 228.410156 123.613281 227.453125 128.414062 230.597656 130.347656 C 257.277344 145.746094 273.695312 174.1875 273.695312 204.988281 C 273.695312 209.984375 281.207031 209.984375 281.207031 204.988281 C 281.207031 171.511719 263.328125 140.574219 234.34375 123.847656 C 233.796875 123.515625 233.191406 123.339844 232.390625 123.320312 Z M 187.496094 145.023438 C 154.179688 145.023438 127.515625 172.136719 127.515625 204.988281 C 127.515625 237.835938 154.160156 264.949219 187.496094 264.949219 C 220.855469 264.949219 247.441406 237.933594 247.441406 204.988281 C 247.441406 172 220.816406 145.023438 187.496094 145.023438 Z M 176.449219 153.691406 C 170.378906 159.234375 165.382812 165.714844 161.636719 172.898438 C 158.082031 171.238281 154.6875 169.246094 151.445312 166.90625 C 158.316406 160.40625 166.984375 155.742188 176.449219 153.691406 Z M 198.546875 153.710938 C 208.03125 155.742188 216.699219 160.386719 223.550781 166.867188 C 220.308594 169.226562 216.914062 171.257812 213.359375 172.9375 C 209.613281 165.753906 204.617188 159.234375 198.546875 153.710938 Z M 191.226562 157.261719 C 197.433594 162.414062 202.585938 168.738281 206.351562 175.707031 C 201.472656 177.308594 196.378906 178.324219 191.226562 178.636719 Z M 183.730469 157.320312 L 183.730469 178.65625 C 178.597656 178.324219 173.503906 177.328125 168.640625 175.726562 C 172.390625 168.757812 177.542969 162.453125 183.730469 157.320312 Z M 146.371094 172.429688 C 150.214844 175.296875 154.257812 177.757812 158.53125 179.769531 C 155.878906 186.5625 154.277344 193.78125 153.867188 201.238281 L 135.1875 201.238281 C 135.949219 190.386719 139.988281 180.453125 146.371094 172.429688 Z M 228.644531 172.449219 C 235.007812 180.472656 239.046875 190.386719 239.808594 201.238281 L 221.109375 201.238281 C 220.71875 193.78125 219.136719 186.5625 216.464844 179.75 C 220.738281 177.757812 224.796875 175.296875 228.644531 172.449219 Z M 165.480469 182.578125 C 171.335938 184.589844 177.503906 185.78125 183.730469 186.132812 L 183.730469 201.238281 L 161.382812 201.238281 C 161.773438 194.757812 163.15625 188.492188 165.480469 182.578125 Z M 209.515625 182.578125 C 211.820312 188.492188 213.222656 194.738281 213.613281 201.238281 L 191.226562 201.238281 L 191.226562 186.152344 C 197.472656 185.800781 203.621094 184.589844 209.515625 182.578125 Z M 135.167969 208.734375 L 153.867188 208.734375 C 154.277344 216.210938 155.878906 223.433594 158.550781 230.246094 C 154.277344 232.234375 150.195312 234.695312 146.351562 237.542969 C 139.988281 229.523438 135.929688 219.605469 135.167969 208.734375 Z M 161.382812 208.734375 L 183.730469 208.734375 L 183.730469 223.84375 C 177.503906 224.195312 171.355469 225.402344 165.480469 227.414062 C 163.15625 221.480469 161.773438 215.234375 161.382812 208.734375 Z M 191.226562 208.734375 L 213.613281 208.734375 C 213.222656 215.234375 211.839844 221.480469 209.515625 227.414062 C 203.640625 225.402344 197.453125 224.175781 191.226562 223.84375 Z M 221.109375 208.734375 L 239.808594 208.734375 C 239.046875 219.605469 234.988281 229.503906 228.625 237.542969 C 224.796875 234.675781 220.71875 232.234375 216.445312 230.246094 C 219.117188 223.433594 220.71875 216.210938 221.109375 208.734375 Z M 105.050781 219.976562 C 94.683594 219.976562 86.3125 228.390625 86.3125 238.695312 C 86.3125 243.324219 87.988281 247.578125 90.800781 250.855469 C 81.429688 255.910156 75.066406 265.90625 75.066406 277.382812 L 75.066406 281.753906 C 75.066406 291.046875 82.503906 298.679688 91.953125 298.679688 L 118.167969 298.679688 C 127.457031 298.679688 135.011719 291.222656 135.011719 281.753906 L 135.011719 277.382812 C 135.011719 265.90625 128.726562 255.949219 119.296875 250.875 C 122.109375 247.597656 123.789062 243.34375 123.789062 238.695312 C 123.789062 228.390625 115.414062 219.976562 105.050781 219.976562 Z M 269.945312 221.050781 C 259.542969 221.050781 251.207031 229.484375 251.207031 239.789062 C 251.207031 244.101562 252.632812 248.027344 255.113281 251.207031 C 245.996094 256.378906 239.945312 266.277344 239.945312 277.382812 L 239.945312 281.753906 C 239.945312 291.046875 247.421875 298.679688 256.828125 298.679688 L 283.0625 298.679688 C 292.511719 298.679688 299.925781 291.046875 299.925781 281.753906 L 299.925781 277.382812 C 299.925781 266.160156 293.894531 256.378906 284.78125 251.207031 C 287.277344 248.027344 288.703125 244.023438 288.703125 239.789062 C 288.703125 229.484375 280.332031 221.050781 269.945312 221.050781 Z M 105.050781 227.472656 C 111.199219 227.472656 116.292969 232.449219 116.292969 238.695312 C 116.292969 244.960938 111.238281 249.957031 105.050781 249.957031 C 98.882812 249.957031 93.804688 244.960938 93.804688 238.695312 C 93.804688 232.449219 98.902344 227.472656 105.050781 227.472656 Z M 269.945312 228.546875 C 276.09375 228.546875 281.207031 233.523438 281.207031 239.789062 C 281.207031 246.035156 276.09375 251.050781 269.945312 251.050781 C 263.796875 251.050781 258.703125 246.035156 258.703125 239.789062 C 258.703125 233.523438 263.796875 228.546875 269.945312 228.546875 Z M 183.730469 231.335938 L 183.730469 252.691406 C 177.542969 247.558594 172.390625 241.234375 168.640625 234.265625 C 173.503906 232.683594 178.597656 231.667969 183.730469 231.335938 Z M 191.226562 231.335938 C 196.378906 231.667969 201.453125 232.664062 206.332031 234.265625 C 202.585938 241.234375 197.472656 247.539062 191.265625 252.671875 Z M 161.636719 237.078125 C 165.382812 244.238281 170.378906 250.738281 176.429688 256.261719 C 166.847656 254.214844 158.296875 249.589844 151.445312 243.089844 C 154.6875 240.746094 158.082031 238.734375 161.636719 237.078125 Z M 213.359375 237.078125 C 216.914062 238.734375 220.328125 240.746094 223.570312 243.109375 C 216.816406 249.511719 208.109375 254.234375 198.527344 256.28125 C 204.617188 250.71875 209.613281 244.238281 213.359375 237.078125 Z M 112.328125 255.988281 C 121.074219 258.917969 127.515625 267.332031 127.515625 277.382812 L 127.515625 281.753906 C 127.515625 286.949219 123.417969 291.183594 118.167969 291.183594 L 91.953125 291.183594 C 86.761719 291.183594 82.5625 287.046875 82.5625 281.753906 L 82.5625 277.382812 C 82.5625 267.332031 88.984375 258.9375 97.769531 255.988281 C 99.972656 256.90625 102.53125 257.453125 105.050781 257.453125 C 107.585938 257.453125 110.125 256.90625 112.328125 255.988281 Z M 261.398438 256.457031 C 263.933594 257.746094 266.921875 258.546875 269.945312 258.546875 C 272.972656 258.546875 275.957031 257.765625 278.496094 256.457031 C 286.578125 259.71875 292.433594 267.800781 292.433594 277.382812 L 292.433594 281.753906 C 292.433594 287.046875 288.234375 291.183594 283.0625 291.183594 L 256.828125 291.183594 C 251.695312 291.183594 247.441406 287.046875 247.441406 281.753906 L 247.441406 277.382812 C 247.441406 267.800781 253.453125 259.660156 261.398438 256.457031 Z M 152.792969 284.371094 C 148.910156 284.742188 148.070312 290.011719 151.699219 291.574219 C 174.617188 301.039062 200.339844 301.039062 223.277344 291.574219 C 227.042969 289.933594 225.929688 284.625 222.105469 284.371094 C 221.519531 284.371094 220.953125 284.390625 220.425781 284.664062 C 199.328125 293.367188 175.648438 293.367188 154.550781 284.664062 C 153.984375 284.410156 153.417969 284.332031 152.792969 284.371094 " fill-opacity="1" fill-rule="nonzero"/></g></svg>