<svg xmlns="http://www.w3.org/2000/svg" xmlns:xlink="http://www.w3.org/1999/xlink" width="500" zoomAndPan="magnify" viewBox="0 0 375 374.999991" height="500" preserveAspectRatio="xMidYMid meet" version="1.0"><defs><clipPath id="12e5c1f38c"><path d="M 73.75 193 L 298.75 193 L 298.75 302.277344 L 73.75 302.277344 Z M 73.75 193 " clip-rule="nonzero"/></clipPath><clipPath id="283a3b2062"><path d="M 112 69.777344 L 249 69.777344 L 249 166 L 112 166 Z M 112 69.777344 " clip-rule="nonzero"/></clipPath></defs><g clip-path="url(#12e5c1f38c)"><path fill="#ed5f00" d="M 295.332031 296.433594 L 264.347656 296.433594 L 264.347656 199.421875 L 295.332031 199.421875 C 296.925781 199.421875 298.242188 198.101562 298.242188 196.507812 C 298.242188 194.914062 296.925781 193.597656 295.332031 193.597656 L 261.4375 193.597656 C 259.84375 193.597656 258.527344 194.914062 258.527344 196.507812 L 258.527344 218.648438 L 245.78125 218.648438 C 241.9375 216.394531 223.972656 206.398438 210.074219 207.164062 C 205.132812 207.441406 196.835938 209.96875 187.773438 213.207031 L 175.136719 205.351562 C 168.65625 201.398438 160.800781 200.628906 153.496094 203.265625 L 143.332031 207.496094 L 140.640625 206.011719 C 133.167969 202.058594 124.105469 201.78125 116.46875 205.40625 L 105.703125 210.40625 L 104.109375 209.691406 C 93.726562 205.574219 81.863281 208.484375 74.609375 217 C 74.117188 217.601562 73.839844 218.371094 73.953125 219.195312 C 74.007812 219.964844 74.445312 220.679688 75.050781 221.171875 L 146.132812 276.65625 C 153.109375 282.480469 161.734375 285.5 170.46875 285.5 C 174.257812 285.5 178.105469 284.949219 181.785156 283.742188 L 244.296875 267.207031 L 258.582031 267.207031 L 258.582031 299.34375 C 258.582031 300.9375 259.898438 302.253906 261.492188 302.253906 L 295.386719 302.253906 C 296.980469 302.253906 298.296875 300.9375 298.296875 299.34375 C 298.296875 297.75 296.925781 296.433594 295.332031 296.433594 Z M 155.636719 208.703125 C 161.128906 206.726562 167.171875 207.332031 172.171875 210.351562 L 181.015625 215.84375 C 176.566406 217.546875 172.171875 219.359375 167.996094 221.117188 L 149.867188 211.121094 Z M 118.941406 210.679688 C 124.984375 207.878906 132.070312 208.042969 137.894531 211.175781 L 161.183594 224.03125 C 154.976562 226.722656 150.089844 228.917969 147.945312 229.960938 L 112.625 213.703125 Z M 258.527344 261.382812 L 243.914062 261.382812 C 243.640625 261.382812 243.417969 261.441406 243.199219 261.496094 L 180.191406 278.140625 C 169.699219 281.433594 158.328125 279.183594 149.757812 272.097656 L 81.148438 218.589844 C 86.804688 213.648438 94.824219 212.21875 101.800781 215.019531 L 104.660156 216.339844 C 104.714844 216.339844 104.714844 216.339844 104.714844 216.394531 L 142.507812 233.808594 C 140.804688 235.402344 138.773438 237.488281 137.070312 239.960938 C 134.652344 243.476562 134.433594 247.980469 136.574219 251.769531 C 138.828125 255.726562 143.058594 257.980469 147.507812 257.648438 L 204.253906 253.640625 C 205.84375 253.527344 207.054688 252.15625 206.945312 250.5625 C 206.835938 248.96875 205.351562 247.816406 203.867188 247.871094 L 147.121094 251.882812 C 144.484375 252.15625 142.5625 250.453125 141.628906 248.914062 C 140.585938 247.046875 140.640625 244.960938 141.847656 243.3125 C 144.925781 238.917969 148.988281 235.949219 149.429688 235.621094 C 152.230469 234.300781 196.945312 213.703125 210.40625 212.988281 C 223.917969 212.21875 243.308594 223.921875 243.476562 224.085938 C 243.914062 224.359375 244.464844 224.523438 244.957031 224.523438 L 258.472656 224.523438 L 258.472656 261.382812 Z M 258.527344 261.382812 " fill-opacity="1" fill-rule="nonzero"/></g><g clip-path="url(#283a3b2062)"><path fill="#ed5f00" d="M 115.207031 165.636719 C 115.921875 165.636719 116.6875 165.363281 117.238281 164.8125 L 158.878906 123.777344 L 190.574219 143.882812 C 191.894531 144.707031 193.59375 144.378906 194.472656 143.113281 L 238.804688 80.546875 L 242.597656 101.695312 C 242.871094 103.121094 244.078125 104.054688 245.453125 104.054688 C 245.617188 104.054688 245.78125 104.054688 245.945312 104 C 247.539062 103.726562 248.582031 102.1875 248.308594 100.652344 L 243.199219 72.359375 C 242.925781 70.765625 241.441406 69.777344 239.847656 69.996094 L 211.558594 75.105469 C 209.964844 75.382812 208.921875 76.917969 209.195312 78.457031 C 209.472656 80.050781 211.007812 81.09375 212.546875 80.820312 L 234.246094 76.917969 L 191.289062 137.566406 L 159.976562 117.679688 C 158.824219 116.964844 157.339844 117.128906 156.40625 118.0625 L 113.117188 160.746094 C 111.964844 161.847656 111.964844 163.714844 113.0625 164.867188 C 113.722656 165.363281 114.492188 165.636719 115.207031 165.636719 Z M 115.207031 165.636719 " fill-opacity="1" fill-rule="nonzero"/></g><path fill="#ed5f00" d="M 146.574219 149.15625 L 146.574219 185.632812 C 146.574219 187.226562 147.890625 188.542969 149.484375 188.542969 C 151.078125 188.542969 152.394531 187.226562 152.394531 185.632812 L 152.394531 149.15625 C 152.394531 147.5625 151.078125 146.246094 149.484375 146.246094 C 147.890625 146.246094 146.574219 147.5625 146.574219 149.15625 Z M 146.574219 149.15625 " fill-opacity="1" fill-rule="nonzero"/><path fill="#ed5f00" d="M 166.625 149.15625 L 166.625 185.632812 C 166.625 187.226562 167.941406 188.542969 169.535156 188.542969 C 171.128906 188.542969 172.445312 187.226562 172.445312 185.632812 L 172.445312 149.15625 C 172.445312 147.5625 171.128906 146.246094 169.535156 146.246094 C 167.941406 146.246094 166.625 147.5625 166.625 149.15625 Z M 166.625 149.15625 " fill-opacity="1" fill-rule="nonzero"/><path fill="#ed5f00" d="M 186.617188 161.1875 L 186.617188 185.6875 C 186.617188 187.28125 187.9375 188.597656 189.53125 188.597656 C 191.125 188.597656 192.441406 187.28125 192.441406 185.6875 L 192.441406 161.1875 C 192.441406 159.59375 191.125 158.273438 189.53125 158.273438 C 187.9375 158.273438 186.617188 159.539062 186.617188 161.1875 Z M 186.617188 161.1875 " fill-opacity="1" fill-rule="nonzero"/><path fill="#ed5f00" d="M 206.667969 144.925781 L 206.667969 185.6875 C 206.667969 187.28125 207.988281 188.597656 209.582031 188.597656 C 211.175781 188.597656 212.492188 187.28125 212.492188 185.6875 L 212.492188 144.925781 C 212.492188 143.332031 211.175781 142.015625 209.582031 142.015625 C 207.988281 142.015625 206.667969 143.277344 206.667969 144.925781 Z M 206.667969 144.925781 " fill-opacity="1" fill-rule="nonzero"/><path fill="#ed5f00" d="M 226.71875 117.570312 L 226.71875 185.632812 C 226.71875 187.226562 228.039062 188.542969 229.632812 188.542969 C 231.222656 188.542969 232.542969 187.226562 232.542969 185.632812 L 232.542969 117.570312 C 232.542969 115.976562 231.222656 114.660156 229.632812 114.660156 C 228.039062 114.660156 226.71875 115.976562 226.71875 117.570312 Z M 226.71875 117.570312 " fill-opacity="1" fill-rule="nonzero"/></svg>