<svg xmlns="http://www.w3.org/2000/svg" xmlns:xlink="http://www.w3.org/1999/xlink" width="40" zoomAndPan="magnify" viewBox="0 0 30 30.000001" height="40" preserveAspectRatio="xMidYMid meet" version="1.0"><defs><clipPath id="6b06927b17"><path d="M 0.484375 0 L 29.515625 0 L 29.515625 29.03125 L 0.484375 29.03125 Z M 0.484375 0 " clip-rule="nonzero"/></clipPath><clipPath id="7409b6353d"><path d="M 4.269531 4.738281 L 25.316406 4.738281 L 25.316406 23.609375 L 4.269531 23.609375 Z M 4.269531 4.738281 " clip-rule="nonzero"/></clipPath><clipPath id="53099a5d41"><path d="M 4.269531 14.246094 C 4.269531 16.769531 5.269531 19.1875 7.054688 20.972656 C 8.835938 22.753906 11.253906 23.757812 13.777344 23.757812 L 15.628906 23.757812 C 18.152344 23.757812 20.570312 22.753906 22.355469 20.972656 C 24.136719 19.1875 25.140625 16.769531 25.140625 14.246094 C 25.140625 11.722656 24.136719 9.304688 22.355469 7.523438 C 20.570312 5.738281 18.152344 4.738281 15.628906 4.738281 L 13.777344 4.738281 C 11.253906 4.738281 8.835938 5.738281 7.054688 7.523438 C 5.269531 9.304688 4.269531 11.722656 4.269531 14.246094 Z M 4.269531 14.246094 " clip-rule="nonzero"/></clipPath><clipPath id="493fcdfe03"><path d="M 11.472656 14.515625 L 12.921875 14.515625 L 12.921875 15.96875 L 11.472656 15.96875 Z M 11.472656 14.515625 " clip-rule="nonzero"/></clipPath></defs><g clip-path="url(#6b06927b17)"><path fill="#ffffff" d="M 0.484375 0 L 29.515625 0 L 29.515625 29.03125 L 0.484375 29.03125 Z M 0.484375 0 " fill-opacity="1" fill-rule="nonzero"/><path fill="#ffffff" d="M 0.484375 0 L 29.515625 0 L 29.515625 29.03125 L 0.484375 29.03125 Z M 0.484375 0 " fill-opacity="1" fill-rule="nonzero"/></g><g clip-path="url(#7409b6353d)"><g clip-path="url(#53099a5d41)"><path fill="#d51c55" d="M 14.5625 12.164062 L 16.957031 17.300781 C 16.429688 17.25 15.957031 17.191406 15.496094 17.136719 C 13.839844 16.933594 12.535156 16.773438 10.84375 17.308594 C 10.664062 17.359375 10.484375 17.421875 10.300781 17.488281 C 10.277344 17.5 10.253906 17.503906 10.226562 17.515625 L 8.339844 13.464844 C 10.398438 12.324219 11.296875 10.898438 12.644531 8.761719 L 12.832031 8.460938 L 14.5625 12.167969 Z M 9.386719 18.222656 L 8.449219 18.648438 L 10.652344 23.371094 C 10.773438 23.628906 11.082031 23.738281 11.339844 23.621094 C 11.59375 23.5 11.707031 23.191406 11.585938 22.933594 L 9.386719 18.21875 Z M 9.394531 17.875 L 8.179688 18.429688 C 8.179688 18.429688 8.167969 18.441406 8.160156 18.441406 L 7.640625 18.683594 L 7.347656 18.8125 C 6.480469 19.210938 5.4375 18.824219 5.027344 17.945312 L 4.664062 17.160156 C 4.253906 16.28125 4.625 15.230469 5.492188 14.824219 L 8.070312 13.597656 L 9.949219 17.621094 L 9.398438 17.871094 Z M 5.894531 16.527344 L 8.050781 15.519531 C 8.125 15.484375 8.160156 15.394531 8.125 15.316406 C 8.085938 15.242188 7.996094 15.207031 7.921875 15.246094 L 5.765625 16.25 C 5.691406 16.285156 5.65625 16.375 5.691406 16.453125 C 5.71875 16.507812 5.773438 16.539062 5.832031 16.539062 C 5.851562 16.539062 5.875 16.539062 5.894531 16.527344 Z M 8.667969 16.480469 C 8.628906 16.40625 8.539062 16.371094 8.464844 16.410156 L 6.308594 17.414062 C 6.234375 17.449219 6.199219 17.539062 6.238281 17.617188 C 6.261719 17.671875 6.316406 17.707031 6.375 17.707031 C 6.398438 17.707031 6.417969 17.703125 6.441406 17.691406 L 8.59375 16.683594 C 8.671875 16.648438 8.703125 16.558594 8.667969 16.480469 Z M 10.714844 18.84375 C 10.859375 18.777344 10.96875 18.65625 11.019531 18.507812 C 11.074219 18.355469 11.066406 18.195312 11 18.050781 L 10.808594 17.640625 C 10.609375 17.703125 10.410156 17.769531 10.210938 17.84375 L 9.664062 18.09375 L 10.140625 19.109375 Z M 17.988281 12.480469 C 18.09375 12.152344 18.070312 11.789062 17.914062 11.460938 C 17.761719 11.132812 17.5 10.882812 17.179688 10.75 C 16.90625 10.636719 16.617188 10.625 16.355469 10.710938 L 17.484375 13.136719 C 17.730469 12.984375 17.902344 12.757812 17.992188 12.480469 Z M 17.273438 13.417969 C 17.273438 13.417969 17.199219 13.257812 17.199219 13.257812 L 14.414062 7.285156 C 14.3125 7.066406 14.140625 6.898438 13.925781 6.8125 C 13.824219 6.773438 13.722656 6.753906 13.621094 6.753906 C 13.515625 6.753906 13.40625 6.777344 13.304688 6.824219 C 13.109375 6.914062 12.96875 7.078125 12.894531 7.296875 C 12.828125 7.515625 12.84375 7.753906 12.945312 7.96875 L 12.996094 8.074219 L 17.351562 17.410156 L 17.398438 17.515625 C 17.5 17.734375 17.671875 17.898438 17.882812 17.984375 C 18.089844 18.066406 18.316406 18.066406 18.507812 17.976562 C 18.910156 17.789062 19.070312 17.273438 18.863281 16.832031 Z M 20.828125 4.753906 C 20.746094 4.726562 20.660156 4.765625 20.632812 4.847656 L 19.316406 8.464844 C 19.289062 8.542969 19.328125 8.632812 19.410156 8.660156 C 19.425781 8.667969 19.441406 8.667969 19.460938 8.667969 C 19.523438 8.667969 19.582031 8.628906 19.605469 8.566406 L 20.921875 4.953125 C 20.949219 4.871094 20.90625 4.78125 20.828125 4.753906 Z M 25.007812 13.777344 L 21.394531 12.464844 C 21.3125 12.4375 21.222656 12.476562 21.195312 12.554688 C 21.167969 12.636719 21.207031 12.726562 21.289062 12.753906 L 24.90625 14.066406 C 24.921875 14.074219 24.9375 14.078125 24.957031 14.078125 C 25.019531 14.078125 25.078125 14.035156 25.101562 13.976562 C 25.128906 13.894531 25.089844 13.804688 25.007812 13.777344 Z M 21.296875 10.277344 L 24.785156 8.652344 C 24.863281 8.617188 24.894531 8.527344 24.859375 8.449219 C 24.820312 8.375 24.730469 8.339844 24.65625 8.378906 L 21.167969 10.003906 C 21.09375 10.039062 21.058594 10.128906 21.09375 10.207031 C 21.121094 10.261719 21.179688 10.292969 21.234375 10.292969 C 21.253906 10.292969 21.277344 10.292969 21.296875 10.277344 Z M 21.296875 10.277344 " fill-opacity="1" fill-rule="nonzero"/></g></g><g clip-path="url(#493fcdfe03)"><path fill="#d51c55" d="M 11.476562 14.519531 L 12.964844 14.519531 L 12.964844 16.007812 L 11.476562 16.007812 Z M 11.476562 14.519531 " fill-opacity="1" fill-rule="nonzero"/><path fill="#d51c55" d="M 11.472656 14.515625 L 11.472656 16.011719 L 12.96875 16.011719 L 12.96875 14.515625 Z M 12.957031 16.003906 L 11.480469 16.003906 L 11.480469 14.527344 L 12.957031 14.527344 Z M 12.957031 16.003906 " fill-opacity="1" fill-rule="nonzero"/></g></svg>